LG_Sit_Stand_Walk03																		
version=1																		
nRows=72																		
nColumns=19																		
inDegrees=yes																		
endheader																		
time	ground_force2_vx	ground_force2_vy	ground_force2_vz	ground_force2_px	ground_force2_py	ground_force2_pz	ground_torque2_x	ground_torque2_y	ground_torque2_z	ground_force1_vx	ground_force1_vy	ground_force1_vz	ground_force1_px	ground_force1_py	ground_force1_pz	ground_torque1_x	ground_torque1_y	ground_torque1_z
6.085	0	0	0	0.2	0	-0.3	0	0	0	41.88567	613.199524	29.929333	-0.128671	0	0.318307	-1.30E-05	-0.010434	-3.00E-06
6.086	0	0	0	0.2	0	-0.3	0	0	0	41.961357	614.209717	30.712879	-0.128855	0	0.318138	-1.30E-05	-0.010434	-3.00E-06
6.087	0	0	0	0.2	0	-0.3	0	0	0	41.961357	614.572327	30.869501	-0.128928	0	0.318691	6.00E-06	-0.022948	-4.00E-06
6.088	0	0	0	0.2	0	-0.3	0	0	0	41.960636	617.667297	31.026323	-0.128971	0	0.318751	6.00E-06	-0.071749	-4.00E-06
6.089	0	0	0	0.2	0	-0.3	0	0	0	41.959911	617.667297	31.261154	-0.128928	0	0.319578	-1.60E-05	-0.022948	-2.00E-06
6.09	0	0	0	0.2	0	-0.3	0	0	0	41.88567	617.98938	31.652887	-0.128689	0	0.319578	-1.60E-05	-0.095937	-2.00E-06
6.091	0	0	0	0.2	0	-0.3	0	0	0	41.101391	616.79248	31.731298	-0.128689	0	0.319438	-1.80E-05	-0.040385	-6.00E-06
6.092	0	0	0	0.2	0	-0.3	0	0	0	41.101391	617.98938	31.809708	-0.129044	0	0.319438	-3.00E-06	-0.040385	-6.00E-06
6.093	0	0	0	0.2	0	-0.3	0	0	0	41.494251	620.393555	32.279613	-0.129044	0	0.319523	-1.50E-05	-0.031965	-6.00E-06
6.094	0	0	0	0.2	0	-0.3	0	0	0	41.494251	621.776428	32.514763	-0.129021	0	0.32013	-1.50E-05	-0.031965	-6.00E-06
6.095	0	0	0	0.2	0	-0.3	0	0	0	41.491364	624.494568	32.514763	-0.128982	0	0.320394	-1.50E-05	-0.07308	-6.00E-06
6.096	0	0	0	0.2	0	-0.3	0	0	0	41.101391	624.494568	32.593094	-0.128896	0	0.320394	-1.10E-05	-0.078656	-4.00E-06
6.097	0	0	0	0.2	0	-0.3	0	0	0	40.474972	622.617676	32.671265	-0.128353	0	0.320248	-1.10E-05	-0.131125	-4.00E-06
6.098	0	0	0	0.2	0	-0.3	0	0	0	40.474972	622.617676	32.671345	-0.128882	0	0.320248	-7.00E-06	-0.131125	-2.00E-06
6.099	0	0	0	0.2	0	-0.3	0	0	0	40.709969	624.330627	33.298389	-0.128784	0	0.321124	-8.00E-06	-0.02915	-1.00E-06
6.1	0	0	0	0.2	0	-0.3	0	0	0	40.943523	626.040894	33.768211	-0.128784	0	0.321245	-8.00E-06	-0.02915	-2.00E-06
6.101	0	0	0	0.2	0	-0.3	0	0	0	41.180683	626.051392	33.846622	-0.128784	0	0.3219	-8.00E-06	-0.02915	-2.00E-06
6.102	0	0	0	0.2	0	-0.3	0	0	0	41.257092	626.040894	34.160027	-0.128605	0	0.321958	-6.00E-06	-0.088867	-5.00E-06
6.103	0	0	0	0.2	0	-0.3	0	0	0	41.257092	626.211731	34.160027	-0.1285	0	0.321958	-6.00E-06	-0.056334	-8.00E-06
6.104	0	0	0	0.2	0	-0.3	0	0	0	41.021374	625.188416	34.238316	-0.1285	0	0.321741	-9.00E-06	-0.124724	-8.00E-06
6.105	0	0	0	0.2	0	-0.3	0	0	0	41.021374	626.562073	34.708584	-0.128566	0	0.321741	-1.00E-05	-0.056334	-8.00E-06
6.106	0	0	0	0.2	0	-0.3	0	0	0	41.494251	628.78418	35.021824	-0.128566	0	0.322765	-1.00E-05	0.065308	-7.00E-06
6.107	0	0	0	0.2	0	-0.3	0	0	0	41.494251	629.296753	35.570179	-0.128566	0	0.322896	-4.00E-06	0.065308	-9.00E-06
6.108	0	0	0	0.2	0	-0.3	0	0	0	41.256367	631.00238	35.726997	-0.128634	0	0.323216	-4.00E-06	-0.116601	-7.00E-06
6.109	0	0	0	0.2	0	-0.3	0	0	0	40.239254	631.00238	35.726997	-0.128634	0	0.322896	-5.00E-06	-0.116601	-7.00E-06
6.11	0	0	0	0.2	0	-0.3	0	0	0	40.081387	631.00238	36.040401	-0.128656	0	0.323486	-5.00E-06	-0.109555	-7.00E-06
6.111	0	0	0	0.2	0	-0.3	0	0	0	39.930016	632.391052	36.275593	-0.128645	0	0.323486	-5.00E-06	-0.006995	-4.00E-06
6.112	0	0	0	0.2	0	-0.3	0	0	0	39.930016	634.963379	36.902237	-0.128673	0	0.323833	-5.00E-06	-0.006995	-8.00E-06
6.113	0	0	0	0.2	0	-0.3	0	0	0	40.320713	634.963379	37.058861	-0.128645	0	0.324364	-1.60E-05	0.080132	0.00E+00
6.114	0	0	0	0.2	0	-0.3	0	0	0	40.320713	635.640381	37.372261	-0.128673	0	0.325084	-1.60E-05	-0.029605	-6.00E-06
6.115	0	0	0	0.2	0	-0.3	0	0	0	39.772869	638.041809	37.529003	-0.128831	0	0.325084	-6.00E-06	-0.029605	-5.00E-06
6.116	0	0	0	0.2	0	-0.3	0	0	0	39.222862	638.041809	37.607254	-0.128831	0	0.324826	-5.00E-06	-0.059367	-5.00E-06
6.117	0	0	0	0.2	0	-0.3	0	0	0	39.615726	638.214294	37.842125	-0.128585	0	0.323943	-4.00E-06	-0.059367	-3.00E-06
6.118	0	0	0	0.2	0	-0.3	0	0	0	39.225029	639.256897	37.999027	-0.128585	0	0.323943	-4.00E-06	-0.044446	-3.00E-06
6.119	0	0	0	0.2	0	-0.3	0	0	0	39.379288	642.49884	38.704121	-0.128648	0	0.325501	3.00E-06	-0.044446	1.00E-06
6.12	0	0	0	0.2	0	-0.3	0	0	0	39.225029	642.49884	38.860867	-0.128916	0	0.32577	-4.00E-06	0.004252	-3.00E-06
6.121	0	0	0	0.2	0	-0.3	0	0	0	39.3764	642.326843	38.860867	-0.128648	0	0.325986	-4.00E-06	-0.082146	-3.00E-06
6.122	0	0	0	0.2	0	-0.3	0	0	0	38.755035	641.301575	39.330891	-0.128533	0	0.325986	-5.00E-06	-0.045663	-3.00E-06
6.123	0	0	0	0.2	0	-0.3	0	0	0	38.677185	642.326843	39.72266	-0.128533	0	0.326133	-5.00E-06	-0.045663	-4.00E-06
6.124	0	0	0	0.2	0	-0.3	0	0	0	38.677185	642.331055	39.879482	-0.128795	0	0.326133	-8.00E-06	-0.045663	-4.00E-06
6.125	0	0	0	0.2	0	-0.3	0	0	0	38.357845	645.088196	40.036228	-0.128802	0	0.326267	-8.00E-06	-0.114105	-6.00E-06
6.126	0	0	0	0.2	0	-0.3	0	0	0	38.357845	645.584595	40.192726	-0.12893	0	0.326963	-8.00E-06	-0.114105	-6.00E-06
6.127	0	0	0	0.2	0	-0.3	0	0	0	38.282158	646.273071	40.584538	-0.12893	0	0.32739	-1.00E-05	-0.151246	-4.00E-06
6.128	0	0	0	0.2	0	-0.3	0	0	0	37.892902	646.273071	40.662868	-0.128942	0	0.327742	-1.00E-05	-0.134077	-2.00E-06
6.129	0	0	0	0.2	0	-0.3	0	0	0	37.342175	646.273071	40.662868	-0.12894	0	0.327652	-1.00E-05	-0.134077	0.00E+00
6.13	0	0	0	0.2	0	-0.3	0	0	0	36.875065	648.684265	40.819733	-0.128942	0	0.327742	-1.40E-05	-0.07318	0
6.131	0	0	0	0.2	0	-0.3	0	0	0	36.875065	649.71759	41.133213	-0.12913	0	0.327846	-3.00E-06	-0.07318	-4.00E-06
6.132	0	0	0	0.2	0	-0.3	0	0	0	36.87146	652.792969	41.289917	-0.12913	0	0.328725	-5.00E-06	-0.129027	-1.10E-05
6.133	0	0	0	0.2	0	-0.3	0	0	0	36.87146	652.792969	41.368084	-0.129215	0	0.329004	2.00E-06	-0.129027	-1.10E-05
6.134	0	0	0	0.2	0	-0.3	0	0	0	36.326504	652.792969	41.368084	-0.129279	0	0.329089	1.00E-06	-0.086681	-5.00E-06
6.135	0	0	0	0.2	0	-0.3	0	0	0	35.545109	653.64917	41.603157	-0.129547	0	0.329434	1.00E-06	-0.086681	-3.00E-06
6.136	0	0	0	0.2	0	-0.3	0	0	0	35.545109	653.64917	41.759937	-0.129547	0	0.329434	1.00E-06	-0.078925	-3.00E-06
6.137	0	0	0	0.2	0	-0.3	0	0	0	36.170078	653.64917	41.916519	-0.129547	0	0.329803	-1.00E-06	-0.050985	-4.00E-06
6.138	0	0	0	0.2	0	-0.3	0	0	0	36.170078	658.790894	42.073223	-0.129402	0	0.330172	-4.00E-06	-0.050985	-4.00E-06
6.139	0	0	0	0.2	0	-0.3	0	0	0	36.167194	658.790894	42.85685	-0.129478	0	0.331106	-2.40E-05	-0.095993	-4.00E-06
6.14	0	0	0	0.2	0	-0.3	0	0	0	35.460762	656.910034	42.85685	-0.129478	0	0.331106	-2.40E-05	-0.179177	-5.00E-06
6.141	0	0	0	0.2	0	-0.3	0	0	0	35.382912	656.910034	42.465237	-0.129478	0	0.331106	-1.00E-05	-0.185775	-5.00E-06
6.142	0	0	0	0.2	0	-0.3	0	0	0	35.225765	658.98291	42.386948	-0.129485	0	0.331151	-1.00E-05	-0.185775	-4.00E-06
6.143	0	0	0	0.2	0	-0.3	0	0	0	34.756496	659.811096	42.465237	-0.129595	0	0.331689	-1.00E-05	-0.185775	-4.00E-06
6.144	0	0	0	0.2	0	-0.3	0	0	0	34.756496	661.051941	42.935299	-0.129989	0	0.331735	-1.60E-05	-0.254831	-5.00E-06
6.145	0	0	0	0.2	0	-0.3	0	0	0	34.909309	662.411194	42.935299	-0.129989	0	0.332396	-9.00E-06	-0.356111	-8.00E-06
6.146	0	0	0	0.2	0	-0.3	0	0	0	34.909309	662.411194	42.621937	-0.129746	0	0.332678	-1.60E-05	-0.356111	-5.00E-06
6.147	0	0	0	0.2	0	-0.3	0	0	0	34.909309	661.548767	42.621937	-0.129746	0	0.332678	-9.00E-06	-0.243674	0
6.148	0	0	0	0.2	0	-0.3	0	0	0	34.441483	661.548767	42.778721	-0.129606	0	0.332833	-9.00E-06	-0.188454	0.00E+00
6.149	0	0	0	0.2	0	-0.3	0	0	0	33.892197	662.057434	42.85717	-0.129805	0	0.333143	-8.00E-06	-0.188454	0
6.15	0	0	0	0.2	0	-0.3	0	0	0	33.892197	663.27478	42.85717	-0.13013	0	0.333552	-8.00E-06	-0.208809	-2.00E-06
6.151	0	0	0	0.2	0	-0.3	0	0	0	34.750721	666.028076	42.85717	-0.13013	0	0.333789	-9.00E-06	-0.268015	-2.00E-06
6.152	0	0	0	0.2	0	-0.3	0	0	0	34.750721	666.028076	43.405483	-0.130131	0	0.334465	-1.10E-05	-0.268015	0
6.153	0	0	0	0.2	0	-0.3	0	0	0	34.515003	663.436768	42.857128	-0.130241	0	0.334512	-1.60E-05	-0.253203	0.00E+00
6.154	0	0	0	0.2	0	-0.3	0	0	0	34.202881	663.436768	42.857128	-0.13042	0	0.335007	-1.60E-05	-0.253203	-6.00E-06
6.155	0	0	0	0.2	0	-0.3	0	0	0	33.887867	665.15625	42.857128	-0.13042	0	0.335113	-1.00E-05	-0.253203	-6.00E-06
6.156	0	0	0	0.2	0	-0.3	0	0	0	33.886425	668.43219	43.092648	-0.130581	0	0.33549	-1.00E-05	-0.307447	-3.00E-06
